<?xml version="1.0" encoding="utf-8"?>
<!-- Svg Vector Icons : http://www.onlinewebfonts.com/icon -->
<!DOCTYPE svg PUBLIC "-//W3C//DTD SVG 1.1//EN" "http://www.w3.org/Graphics/SVG/1.1/DTD/svg11.dtd">
<svg version="1.1" xmlns="http://www.w3.org/2000/svg" xmlns:xlink="http://www.w3.org/1999/xlink" x="0px" y="0px" viewBox="0 0 256 256" enable-background="new 0 0 256 256" xml:space="preserve">
<metadata> Svg Vector Icons : http://www.onlinewebfonts.com/icon </metadata>
<g><g><path fill="#000000" d="M232.9,246H23.1c-7.2,0-13.1-5.9-13.1-13.1V23.1C10,15.9,15.9,10,23.1,10h209.8c7.2,0,13.1,5.9,13.1,13.1v209.8C246,240.1,240.1,246,232.9,246z M232.9,29.7c0-3.6-2.9-6.6-6.6-6.6H29.7c-3.6,0-6.6,2.9-6.6,6.6v196.7c0,3.6,2.9,6.6,6.6,6.6h196.7c3.6,0,6.6-2.9,6.6-6.6V29.7L232.9,29.7z M146.1,178.3c-1.4,1.4-3.2,2-5,2c-1.8,0-3.6-0.6-5-2l-39.5-28.1L60.9,198c-2.7,2.7-7,2.7-9.7,0c-2.7-2.7-2.7-7,0-9.7L90,136.5c1.4-1.4,3.3-2,5.3-1.9c1.9-0.1,3.8,0.5,5.3,1.9l39.6,28.2l54.8-60.9c2.7-2.7,7-2.7,9.7,0c2.7,2.7,2.7,7,0,9.7L146.1,178.3z M88.7,101.8C77.8,101.8,69,93,69,82.1s8.8-19.7,19.7-19.7s19.7,8.8,19.7,19.7C108.3,93,99.5,101.8,88.7,101.8z M95.2,75.5H82.1v13.1h13.1V75.5z"/></g></g>
</svg>